<svg version="1.2" xmlns="http://www.w3.org/2000/svg" viewBox="0 0 333 145" width="333" height="145">
	<style>
		.s0 { fill: #0078c1 } 
		.s1 { fill: #ed1c24 } 
		.s2 { fill: #ffffff } 
	</style>
	<path fill-rule="evenodd" class="s0" d="m333 1v144h-332v-144z"/>
	<path fill-rule="evenodd" class="s1" d="m248.81 128.75c-31.11 0-56.26-25.15-56.26-56.26 0-31.11 25.15-56.26 56.26-56.26 31.11 0 56.26 25.15 56.26 56.26 0 31.11-25.15 56.26-56.26 56.26z"/>
	<path fill-rule="evenodd" class="s2" d="m275.19 80.15v16.79h-53.15v-16.79z"/>
	<path class="s2" d="m246.88 55.08c0.7 0.88 1.29 1.14 1.91 1.16 0.64-0.02 1.2-0.24 1.89-1.16 0 0 8.88-11.68 9.35-12.24 1.2-1.49 2.65-1.49 3.85 0l11.31 14.33v22.99l-11.24-14.44c-1.31-1.65-2.82-1.66-4.15 0-0.45 0.59-9.08 12.02-9.08 12.02-1.34 1.69-2.62 1.69-3.95 0 0 0-8.84-11.49-9.23-12.02-1.29-1.62-2.73-1.66-4.14 0l-11.36 14.44-0.01-22.92c0 0 10.83-13.58 11.52-14.4 1.22-1.48 2.7-1.48 3.9-0.01zm-185.59 31.05c0-7.36-6.02-10.02-13.31-10.19v-0.28c6.2-0.5 11.3-3.1 11.3-9.37 0-6.98-5.77-8.28-12.22-8.28-7.76 0-16.86 0.21-24.6 0v1.94c1.63-0.11 5.6 0.11 5.6 2.17v30.65c0 1.98-4.07 2.26-5.6 2.26v1.88c7.49-0.2 16.36 0 23.87 0 7.91 0 14.96-2.67 14.96-10.78zm-9.91-0.64c0 6.33-2.12 9.34-9.51 9.34h-4.61v-17.72h4.91c6.72-0.01 9.21 2.36 9.21 8.38zm-1.57-18.04c0 4.89-2.14 7.6-7.76 7.6h-4.79v-14.99c0.62-0.06 2.66-0.11 3.26-0.11h1.65c5.74 0 7.64 2.56 7.64 7.5zm61.53 29.4c-3.47 0-6.95-0.04-10.42 0.06v-1.93c1.58 0 5.96-0.09 5.96-2.21v-28.56h-0.12l-15.95 33.22h-1.64l-15.52-33.22h-0.12v28.56c0 2.17 4.56 2.21 6.21 2.21l0.06 1.93c-4.33-0.14-10.24-0.24-14.51 0v-1.93c1.65 0 5.6-0.13 5.6-2.21v-30.62c0-2.03-4.08-2.2-5.6-2.2l-0.06-1.94c4.94 0.2 10.24 0.2 15.17 0l13.27 27.82 13.52-27.78c4.75 0.23 9.87 0.16 14.62-0.04v1.94c-1.57 0-5.72 0.1-5.72 2.2v30.62c0 2.12 4.09 2.21 5.72 2.21v1.93c-3.47-0.1-7-0.06-10.47-0.06zm57.36-19.44c0-12.87-7.87-20.09-22.05-20.09-14.19 0-22.12 7.16-22.12 20.09 0 12.94 7.86 20.15 22.12 20.15 14.25 0 22.05-7.2 22.05-20.15zm-10.3 0c0 7.6-0.74 18.22-11.75 18.22-11.02 0-11.82-10.62-11.82-18.22 0-7.6 0.8-18.15 11.82-18.15 10.95 0 11.75 10.61 11.75 18.15zm152.22-43.77c-3.7 0-6.69 3-6.69 6.7 0 3.69 2.99 6.69 6.69 6.69 3.69 0 6.69-3 6.69-6.69 0-3.7-3-6.7-6.69-6.7zm0 12.45c-3.13 0-5.67-2.58-5.67-5.76 0-3.18 2.54-5.76 5.67-5.76 3.13 0 5.67 2.58 5.67 5.76 0 3.18-2.54 5.76-5.67 5.76z"/>
	<path class="s2" d="m313.72 38.66c0-1.49-0.86-2.17-2.54-2.17h-2.97v7.68h0.93v-3.41h1.61l2.17 3.41h1.11l-2.29-3.41c1.23-0.19 1.98-1.03 1.98-2.1zm-4.58 1.3v-2.67h1.61c1.36 0 1.98 0.4 1.98 1.33 0 0.93-0.62 1.33-1.98 1.33 0 0-1.61 0-1.61 0.01z"/>
</svg>